<svg width="52" height="51" viewBox="0 0 52 51" fill="none" xmlns="http://www.w3.org/2000/svg">
<path fill-rule="evenodd" clip-rule="evenodd" d="M44.4815 9.62629C44.7686 9.32417 44.9248 8.92457 44.9174 8.51168C44.91 8.09879 44.7394 7.70485 44.4417 7.41284C44.144 7.12084 43.7423 6.95358 43.3213 6.94629C42.9003 6.93901 42.4929 7.09227 42.1848 7.37379L7.51818 41.3738C7.35852 41.5197 7.23047 41.6956 7.14165 41.8911C7.05284 42.0866 7.00508 42.2977 7.00123 42.5117C6.99738 42.7257 7.03752 42.9382 7.11925 43.1367C7.20097 43.3351 7.32262 43.5154 7.47693 43.6667C7.63124 43.8181 7.81504 43.9374 8.01738 44.0176C8.21972 44.0977 8.43645 44.1371 8.65464 44.1333C8.87283 44.1295 9.08801 44.0827 9.28734 43.9956C9.48668 43.9085 9.66608 43.7829 9.81485 43.6263L16.3907 37.1769C19.2463 38.4689 22.5158 39.3125 25.9998 39.3125C31.6722 39.3125 36.7725 37.0792 40.4472 34.3124C42.2888 32.9269 43.799 31.3884 44.8563 29.8924C45.8963 28.4219 46.5832 26.8792 46.5832 25.5C46.5832 24.1209 45.8963 22.5782 44.8563 21.1098C43.799 19.6117 42.2888 18.0732 40.4472 16.6898C39.8622 16.2478 39.2382 15.8185 38.5838 15.4127L44.4815 9.62629ZM32.7815 21.1055L30.3982 23.4388C30.8326 24.331 30.9744 25.3334 30.8039 26.3079C30.6334 27.2824 30.1591 28.1811 29.4463 28.8802C28.7334 29.5793 27.8171 30.0445 26.8235 30.2117C25.8299 30.3789 24.8079 30.2399 23.8982 29.8138L21.5148 32.1513C23.0773 33.1659 24.9493 33.6197 26.8138 33.4357C28.6783 33.2517 30.4206 32.4413 31.7456 31.1417C33.0707 29.8421 33.897 28.1333 34.0846 26.3047C34.2722 24.4761 33.8095 22.6401 32.775 21.1077L32.7815 21.1055Z" fill="black"/>
<path d="M27.4515 17.6588C27.5406 17.6751 27.6325 17.6702 27.7193 17.6443C27.806 17.6184 27.8851 17.5723 27.9498 17.51L32.1748 13.3662C32.2405 13.3029 32.2881 13.2237 32.3128 13.1367C32.3376 13.0497 32.3386 12.9578 32.3158 12.8703C32.293 12.7827 32.2471 12.7026 32.1829 12.6379C32.1186 12.5731 32.0381 12.5261 31.9495 12.5014C30.0132 11.9661 28.0116 11.6923 25.9998 11.6875C20.3275 11.6875 15.2272 13.9209 11.5525 16.6876C9.71084 18.0731 8.20067 19.6116 7.14117 21.1076C6.10117 22.5781 5.4165 24.1209 5.4165 25.5C5.4165 26.8791 6.10334 28.4219 7.14117 29.8902C8.1722 31.3095 9.39035 32.5885 10.7638 33.694C10.8666 33.7773 10.9975 33.8198 11.1307 33.8131C11.2638 33.8065 11.3896 33.7511 11.4832 33.6579L17.8532 27.4104C17.9167 27.3469 17.9637 27.2693 17.9901 27.1842C18.0165 27.0991 18.0215 27.009 18.0048 26.9216C17.77 25.6543 17.852 24.35 18.2437 23.1206C18.6353 21.8911 19.325 20.7731 20.2537 19.8622C21.1824 18.9514 22.3223 18.275 23.5759 17.8908C24.8295 17.5067 26.1593 17.4263 27.4515 17.6566V17.6588Z" fill="black"/>
</svg>
