<svg width="42" height="27" viewBox="0 0 42 27" fill="none" xmlns="http://www.w3.org/2000/svg">
<path d="M21 0.5C26.6129 0.5 31.7462 3.77467 35.5176 7.12402C37.3948 8.79123 38.9155 10.4598 39.9668 11.7119C40.4921 12.3375 40.8995 12.8584 41.1748 13.2217C41.2554 13.328 41.3233 13.422 41.3809 13.5C41.3233 13.578 41.2554 13.672 41.1748 13.7783C40.8995 14.1416 40.4921 14.6625 39.9668 15.2881C38.9155 16.5402 37.3948 18.2088 35.5176 19.876C31.7462 23.2253 26.6129 26.5 21 26.5C15.387 26.5 10.2538 23.2253 6.48242 19.876C4.60518 18.2088 3.08451 16.5402 2.0332 15.2881C1.50791 14.6625 1.10049 14.1416 0.825195 13.7783C0.744467 13.6718 0.675785 13.5781 0.618164 13.5C0.675785 13.4219 0.744467 13.3282 0.825195 13.2217C1.10049 12.8584 1.50791 12.3375 2.0332 11.7119C3.08451 10.4598 4.60518 8.79123 6.48242 7.12402C10.2538 3.77467 15.387 0.5 21 0.5ZM28.9004 13.5C28.9004 17.4451 25.404 20.7139 21 20.7139C16.596 20.7139 13.0996 17.4451 13.0996 13.5C13.0996 9.55489 16.596 6.28613 21 6.28613C25.404 6.28613 28.9004 9.55489 28.9004 13.5ZM29.9004 13.5C29.9004 8.92414 25.8744 5.28613 21 5.28613C16.1256 5.28613 12.0996 8.92414 12.0996 13.5C12.0996 18.0759 16.1256 21.7139 21 21.7139C25.8744 21.7139 29.9004 18.0759 29.9004 13.5Z" fill="black" stroke="white" stroke-linecap="round"/>
</svg>
