<svg width="12" height="18" viewBox="0 0 12 18" fill="none" xmlns="http://www.w3.org/2000/svg">
<path d="M1.875 0C1.37772 0 0.900805 0.263392 0.549175 0.732233C0.197544 1.20107 0 1.83696 0 2.5V11.5C0 12.163 0.197544 12.7989 0.549175 13.2678C0.900805 13.7366 1.37772 14 1.875 14H4.5V8H2.625C2.52554 8 2.43016 7.94732 2.35984 7.85355C2.28951 7.75979 2.25 7.63261 2.25 7.5C2.25 7.36739 2.28951 7.24021 2.35984 7.14645C2.43016 7.05268 2.52554 7 2.625 7H4.6275C4.72583 6.63122 4.87715 6.29154 5.073 6H2.625C2.52554 6 2.43016 5.94732 2.35984 5.85355C2.28951 5.75979 2.25 5.63261 2.25 5.5C2.25 5.36739 2.28951 5.24021 2.35984 5.14645C2.43016 5.05268 2.52554 5 2.625 5H10.5V2.5C10.5 1.83696 10.3025 1.20107 9.95082 0.732233C9.59919 0.263392 9.12228 0 8.625 0H1.875ZM2.25 3.5C2.25 3.36739 2.28951 3.24021 2.35984 3.14645C2.43016 3.05268 2.52554 3 2.625 3H7.875C7.97446 3 8.06984 3.05268 8.14017 3.14645C8.21049 3.24021 8.25 3.36739 8.25 3.5C8.25 3.63261 8.21049 3.75979 8.14017 3.85355C8.06984 3.94732 7.97446 4 7.875 4H2.625C2.52554 4 2.43016 3.94732 2.35984 3.85355C2.28951 3.75979 2.25 3.63261 2.25 3.5ZM12 8C12 7.46957 11.842 6.96086 11.5607 6.58579C11.2794 6.21071 10.8978 6 10.5 6H6.75C6.35218 6 5.97064 6.21071 5.68934 6.58579C5.40804 6.96086 5.25 7.46957 5.25 8V16C5.25 16.5304 5.40804 17.0391 5.68934 17.4142C5.97064 17.7893 6.35218 18 6.75 18H11.625C11.7245 18 11.8198 17.9473 11.8902 17.8536C11.9605 17.7598 12 17.6326 12 17.5C12 17.3674 11.9605 17.2402 11.8902 17.1464C11.8198 17.0527 11.7245 17 11.625 17H6.75C6.55109 17 6.36032 16.8946 6.21967 16.7071C6.07902 16.5196 6 16.2652 6 16V15.997H11.625C11.7245 15.997 11.8198 15.9443 11.8902 15.8506C11.9605 15.7568 12 15.6296 12 15.497V8ZM6 14.997V8C6 7.73478 6.07902 7.48043 6.21967 7.29289C6.36032 7.10536 6.55109 7 6.75 7H10.5C10.6989 7 10.8897 7.10536 11.0303 7.29289C11.171 7.48043 11.25 7.73478 11.25 8V14.997H6Z" fill="white"/>
</svg>
