<svg width="34" height="42" viewBox="0 0 34 42" fill="none" xmlns="http://www.w3.org/2000/svg">
<path d="M5.3125 0C3.90354 0 2.55228 0.614582 1.556 1.70854C0.559708 2.80251 0 4.28624 0 5.83333V26.8333C0 28.3804 0.559708 29.8642 1.556 30.9581C2.55228 32.0521 3.90354 32.6667 5.3125 32.6667H12.75V18.6667H7.4375C7.15571 18.6667 6.88546 18.5438 6.6862 18.325C6.48694 18.1062 6.375 17.8094 6.375 17.5C6.375 17.1906 6.48694 16.8938 6.6862 16.675C6.88546 16.4562 7.15571 16.3333 7.4375 16.3333H13.1112C13.3898 15.4728 13.8186 14.6803 14.3735 14H7.4375C7.15571 14 6.88546 13.8771 6.6862 13.6583C6.48694 13.4395 6.375 13.1428 6.375 12.8333C6.375 12.5239 6.48694 12.2272 6.6862 12.0084C6.88546 11.7896 7.15571 11.6667 7.4375 11.6667H29.75V5.83333C29.75 4.28624 29.1903 2.80251 28.194 1.70854C27.1977 0.614582 25.8465 0 24.4375 0H5.3125ZM6.375 8.16667C6.375 7.85725 6.48694 7.5605 6.6862 7.34171C6.88546 7.12292 7.15571 7 7.4375 7H22.3125C22.5943 7 22.8645 7.12292 23.0638 7.34171C23.2631 7.5605 23.375 7.85725 23.375 8.16667C23.375 8.47609 23.2631 8.77283 23.0638 8.99162C22.8645 9.21042 22.5943 9.33333 22.3125 9.33333H7.4375C7.15571 9.33333 6.88546 9.21042 6.6862 8.99162C6.48694 8.77283 6.375 8.47609 6.375 8.16667ZM34 18.6667C34 17.429 33.5522 16.242 32.7552 15.3668C31.9582 14.4917 30.8772 14 29.75 14H19.125C17.9978 14 16.9168 14.4917 16.1198 15.3668C15.3228 16.242 14.875 17.429 14.875 18.6667V37.3333C14.875 38.571 15.3228 39.758 16.1198 40.6332C16.9168 41.5083 17.9978 42 19.125 42H32.9375C33.2193 42 33.4895 41.8771 33.6888 41.6583C33.8881 41.4395 34 41.1427 34 40.8333C34 40.5239 33.8881 40.2272 33.6888 40.0084C33.4895 39.7896 33.2193 39.6667 32.9375 39.6667H19.125C18.5614 39.6667 18.0209 39.4208 17.6224 38.9832C17.2239 38.5457 17 37.9522 17 37.3333V37.3263H32.9375C33.2193 37.3263 33.4895 37.2034 33.6888 36.9846C33.8881 36.7658 34 36.4691 34 36.1597V18.6667ZM17 34.993V18.6667C17 18.0478 17.2239 17.4543 17.6224 17.0168C18.0209 16.5792 18.5614 16.3333 19.125 16.3333H29.75C30.3136 16.3333 30.8541 16.5792 31.2526 17.0168C31.6511 17.4543 31.875 18.0478 31.875 18.6667V34.993H17Z" fill="#333366"/>
</svg>
