<svg width="12" height="16" viewBox="0 0 12 16" fill="none" xmlns="http://www.w3.org/2000/svg">
<path d="M2.00293 1.59937H11.0002V2.37413H2.00293V1.59937Z" fill="white"/>
<path d="M11.5001 2.99909H1.93304C1.80548 2.99729 1.67961 2.96966 1.56302 2.91788C1.44642 2.86611 1.34152 2.79125 1.25464 2.69784C1.16777 2.60442 1.10071 2.49437 1.05751 2.37433C1.01432 2.25429 0.995887 2.12675 1.00332 1.9994C1.0027 1.74595 1.09837 1.50173 1.27097 1.31614C1.44357 1.13054 1.68022 1.01744 1.93304 0.999698H11.5001C11.6327 0.999698 11.7599 0.947035 11.8536 0.853295C11.9473 0.759556 12 0.632417 12 0.499849C12 0.367281 11.9473 0.240142 11.8536 0.146402C11.7599 0.0526625 11.6327 0 11.5001 0H1.93304C1.41499 0.0181428 0.924238 0.236775 0.564282 0.609787C0.204326 0.982798 0.00330919 1.48103 0.00362678 1.9994C-0.00120893 2.08097 -0.00120893 2.16275 0.00362678 2.24432C-0.00118917 2.28416 -0.00118917 2.32444 0.00362678 2.36428V13.9958C0.00330919 14.5141 0.204326 15.0124 0.564282 15.3854C0.924238 15.7584 1.41499 15.977 1.93304 15.9952H11.5001C11.6327 15.9952 11.7599 15.9425 11.8536 15.8488C11.9473 15.755 12 15.6279 12 15.4953V3.53393C12.0003 3.39794 11.9488 3.26695 11.8559 3.1676C11.7631 3.06824 11.6358 3.00799 11.5001 2.99909Z" fill="white"/>
</svg>
