<svg width="34" height="50" viewBox="0 0 34 50" fill="none" xmlns="http://www.w3.org/2000/svg">
<path d="M32.5838 9.375H5.47696C5.11554 9.36935 4.7589 9.28299 4.42855 9.12115C4.0982 8.9593 3.80098 8.72531 3.55483 8.43329C3.30867 8.14127 3.11867 7.79727 2.99629 7.42203C2.87391 7.0468 2.82168 6.64811 2.84275 6.25C2.84099 5.45774 3.11204 4.69432 3.60108 4.11417C4.09011 3.53402 4.76062 3.18046 5.47696 3.125H32.5838C32.9594 3.125 33.3196 2.96038 33.5852 2.66735C33.8508 2.37433 34 1.9769 34 1.5625C34 1.1481 33.8508 0.750671 33.5852 0.457646C33.3196 0.16462 32.9594 0 32.5838 0H5.47696C4.00915 0.0567133 2.61867 0.740147 1.5988 1.90616C0.578925 3.07217 0.00937603 4.62961 0.0102759 6.25C-0.00342529 6.50498 -0.00342529 6.76064 0.0102759 7.01562C-0.00336931 7.14017 -0.00336931 7.26608 0.0102759 7.39062V43.75C0.00937603 45.3704 0.578925 46.9278 1.5988 48.0938C2.61867 49.2599 4.00915 49.9433 5.47696 50H32.5838C32.9594 50 33.3196 49.8354 33.5852 49.5424C33.8508 49.2493 34 48.8519 34 48.4375V11.0469C34.0008 10.6218 33.8548 10.2123 33.5918 9.90173C33.3287 9.59116 32.9682 9.40281 32.5838 9.375Z" fill="#333366"/>
</svg>
