<svg width="45" height="50" viewBox="0 0 45 50" fill="none" xmlns="http://www.w3.org/2000/svg">
<path fill-rule="evenodd" clip-rule="evenodd" d="M19.7268 4.37863e-08C16.5809 0.000263816 13.4807 0.740941 10.6848 2.16024C7.88891 3.57953 5.47842 5.63629 3.65444 8.15891C1.83047 10.6815 0.645904 13.5969 0.199572 16.6617C-0.24676 19.7265 0.058086 22.8519 1.08868 25.7772C2.11927 28.7025 3.84572 31.3428 6.12399 33.4779C8.40226 35.6129 11.1663 37.1808 14.1855 38.0507C17.2046 38.9206 20.3914 39.0673 23.4799 38.4786C26.5684 37.8899 29.4691 36.5828 31.9399 34.6663L40.4162 43.0085C40.854 43.4246 41.4403 43.6549 42.0488 43.6497C42.6574 43.6445 43.2395 43.4042 43.6698 42.9807C44.1002 42.5572 44.3443 41.9843 44.3495 41.3853C44.3548 40.7864 44.1209 40.2094 43.6981 39.7786L35.2218 31.4364C37.515 28.5733 38.9428 25.1326 39.3418 21.5082C39.7409 17.8838 39.0951 14.222 37.4783 10.9419C35.8616 7.66188 33.3392 4.89604 30.1999 2.96096C27.0605 1.02589 23.4311 -0.000244746 19.7268 4.37863e-08ZM4.64032 19.4164C4.64032 15.4785 6.22979 11.7019 9.05905 8.91741C11.8883 6.1329 15.7256 4.56857 19.7268 4.56857C23.728 4.56857 27.5653 6.1329 30.3946 8.91741C33.2239 11.7019 34.8133 15.4785 34.8133 19.4164C34.8133 23.3543 33.2239 27.1309 30.3946 29.9155C27.5653 32.7 23.728 34.2643 19.7268 34.2643C15.7256 34.2643 11.8883 32.7 9.05905 29.9155C6.22979 27.1309 4.64032 23.3543 4.64032 19.4164Z" fill="#6A7498"/>
</svg>
