<svg width="12" height="13" viewBox="0 0 12 13" fill="none" xmlns="http://www.w3.org/2000/svg">
<path d="M10.5875 6.77208C10.6132 6.57933 10.6261 6.38015 10.6261 6.16812C10.6261 5.96252 10.6132 5.75691 10.5811 5.56416L11.8854 4.54899C11.9416 4.50266 11.98 4.43828 11.9941 4.36682C12.0081 4.29535 11.997 4.22122 11.9625 4.15706L10.7289 2.02392C10.6926 1.95938 10.6346 1.90979 10.5652 1.88392C10.4958 1.85805 10.4195 1.85757 10.3498 1.88256L8.8142 2.49937C8.49295 2.25522 8.15242 2.04962 7.77333 1.89541L7.54203 0.263432C7.53065 0.189884 7.49327 0.122855 7.43668 0.074518C7.38009 0.0261811 7.30805 -0.000257972 7.23362 1.89759e-06H4.76638C4.61217 1.89759e-06 4.4901 0.109229 4.4644 0.263432L4.23309 1.89541C3.85401 2.04962 3.50705 2.26164 3.19222 2.49937L1.65662 1.88256C1.51526 1.83116 1.35464 1.88256 1.27753 2.02392L0.0503364 4.15706C-0.0267651 4.29198 -0.00106469 4.45904 0.127438 4.54899L1.43174 5.56416C1.39961 5.75691 1.37391 5.96894 1.37391 6.16812C1.37391 6.3673 1.38676 6.57933 1.41889 6.77208L0.114588 7.78725C0.0583831 7.83358 0.01998 7.89796 0.00592107 7.96942C-0.00813783 8.04089 0.00301742 8.11502 0.0374861 8.17918L1.27111 10.3123C1.34821 10.4537 1.50884 10.4987 1.65019 10.4537L3.1858 9.83686C3.50705 10.081 3.84758 10.2866 4.22667 10.4408L4.45797 12.0728C4.4901 12.227 4.61217 12.3362 4.76638 12.3362H7.23362C7.38783 12.3362 7.51633 12.227 7.5356 12.0728L7.76691 10.4408C8.14599 10.2866 8.49295 10.081 8.80778 9.83686L10.3434 10.4537C10.4847 10.5051 10.6454 10.4537 10.7225 10.3123L11.9561 8.17918C12.0332 8.03783 12.0011 7.8772 11.879 7.78725L10.5875 6.77208ZM6 8.48116C4.72783 8.48116 3.68696 7.44029 3.68696 6.16812C3.68696 4.89595 4.72783 3.85508 6 3.85508C7.27217 3.85508 8.31304 4.89595 8.31304 6.16812C8.31304 7.44029 7.27217 8.48116 6 8.48116Z" fill="white"/>
</svg>
