<svg width="33" height="35" viewBox="0 0 33 35" fill="none" xmlns="http://www.w3.org/2000/svg">
<path d="M29.1157 19.2135C29.1864 18.6667 29.2217 18.1016 29.2217 17.5C29.2217 16.9167 29.1864 16.3333 29.0981 15.7865L32.6849 12.9063C32.8394 12.7748 32.9451 12.5922 32.9837 12.3894C33.0224 12.1866 32.9917 11.9763 32.8969 11.7943L29.5044 5.74219C29.4046 5.55911 29.2451 5.4184 29.0543 5.34499C28.8635 5.27159 28.6537 5.27023 28.462 5.34115L24.2391 7.09115C23.3556 6.39844 22.4191 5.81511 21.3767 5.37761L20.7406 0.747401C20.7093 0.538732 20.6065 0.34856 20.4509 0.21142C20.2953 0.0742803 20.0971 -0.00073191 19.8925 5.3838e-06H13.1075C12.6835 5.3838e-06 12.3478 0.309901 12.2771 0.747401L11.641 5.37761C10.5985 5.81511 9.64439 6.41667 8.77861 7.09115L4.5557 5.34115C4.16698 5.19532 3.72525 5.34115 3.51322 5.74219L0.138425 11.7943C-0.073604 12.1771 -0.00292789 12.651 0.350454 12.9063L3.93728 15.7865C3.84893 16.3333 3.77826 16.9349 3.77826 17.5C3.77826 18.0651 3.8136 18.6667 3.90194 19.2135L0.315116 22.0938C0.160554 22.2252 0.0549449 22.4078 0.0162829 22.6106C-0.022379 22.8134 0.0082979 23.0237 0.103087 23.2057L3.49555 29.2578C3.70758 29.6589 4.14931 29.7865 4.53803 29.6589L8.76094 27.9089C9.64439 28.6016 10.5809 29.1849 11.6233 29.6224L12.2594 34.2526C12.3478 34.6901 12.6835 35 13.1075 35H19.8925C20.3165 35 20.6699 34.6901 20.7229 34.2526L21.359 29.6224C22.4015 29.1849 23.3556 28.6016 24.2214 27.9089L28.4443 29.6589C28.833 29.8047 29.2747 29.6589 29.4868 29.2578L32.8792 23.2057C33.0913 22.8047 33.0029 22.349 32.6672 22.0938L29.1157 19.2135ZM16.5 24.0625C13.0015 24.0625 10.1391 21.1094 10.1391 17.5C10.1391 13.8906 13.0015 10.9375 16.5 10.9375C19.9985 10.9375 22.8609 13.8906 22.8609 17.5C22.8609 21.1094 19.9985 24.0625 16.5 24.0625Z" fill="#333366"/>
</svg>
