<svg width="14" height="16" viewBox="0 0 14 16" fill="none" xmlns="http://www.w3.org/2000/svg">
<path d="M12.4444 1.6H11.6667V0H10.1111V1.6H3.88889V0H2.33333V1.6H1.55556C1.143 1.6 0.747335 1.76857 0.455612 2.06863C0.163888 2.36869 0 2.77565 0 3.2V14.4C0 14.8243 0.163888 15.2313 0.455612 15.5314C0.747335 15.8314 1.143 16 1.55556 16H12.4444C13.3 16 14 15.28 14 14.4V3.2C14 2.32 13.3 1.6 12.4444 1.6ZM7 4C8.29111 4 9.33333 5.072 9.33333 6.4C9.33333 7.728 8.29111 8.8 7 8.8C5.70889 8.8 4.66667 7.728 4.66667 6.4C4.66667 5.072 5.70889 4 7 4ZM11.6667 13.6H2.33333V12.8C2.33333 11.2 5.44444 10.32 7 10.32C8.55556 10.32 11.6667 11.2 11.6667 12.8V13.6Z" fill="white"/>
</svg>
