<svg width="35" height="41" viewBox="0 0 35 41" fill="none" xmlns="http://www.w3.org/2000/svg">
<path d="M31.1111 4.1H29.1667V0H25.2778V4.1H9.72222V0H5.83333V4.1H3.88889C2.85749 4.1 1.86834 4.53196 1.13903 5.30086C0.409721 6.06976 0 7.11261 0 8.2V36.9C0 37.9874 0.409721 39.0302 1.13903 39.7991C1.86834 40.568 2.85749 41 3.88889 41H31.1111C33.25 41 35 39.155 35 36.9V8.2C35 5.945 33.25 4.1 31.1111 4.1ZM17.5 10.25C20.7278 10.25 23.3333 12.997 23.3333 16.4C23.3333 19.803 20.7278 22.55 17.5 22.55C14.2722 22.55 11.6667 19.803 11.6667 16.4C11.6667 12.997 14.2722 10.25 17.5 10.25ZM29.1667 34.85H5.83333V32.8C5.83333 28.7 13.6111 26.445 17.5 26.445C21.3889 26.445 29.1667 28.7 29.1667 32.8V34.85Z" fill="#333366"/>
</svg>
